<?xml version="1.0" standalone="no"?>
<!DOCTYPE svg PUBLIC "-//W3C//DTD SVG 20010904//EN"
 "http://www.w3.org/TR/2001/REC-SVG-20010904/DTD/svg10.dtd">
<svg version="1.0" xmlns="http://www.w3.org/2000/svg"
 width="1120.000000pt" height="1120.000000pt" viewBox="0 0 1120.000000 1120.000000"
 preserveAspectRatio="xMidYMid meet">

<g transform="translate(0.000000,1120.000000) scale(0.100000,-0.100000)"
fill="#000000" stroke="none">
<path d="M4515 8311 c-24 -6 -302 -126 -738 -319 l-59 -25 6 -66 c4 -36 13
-165 21 -286 37 -559 56 -809 60 -813 4 -4 308 224 374 280 18 16 35 27 37 25
3 -2 -2 -49 -10 -103 -59 -390 -2 -736 179 -1103 125 -251 279 -461 476 -645
157 -148 389 -310 604 -422 l120 -63 125 65 c155 81 375 227 501 332 417 350
697 838 765 1334 19 137 14 374 -10 526 -7 45 -11 82 -9 82 2 0 50 -37 105
-81 56 -45 147 -115 202 -156 88 -66 101 -73 107 -57 4 11 15 127 24 259 21
318 54 778 60 840 l5 50 -113 49 c-61 28 -232 103 -379 168 -285 126 -342 144
-421 134 -85 -12 -199 -85 -234 -150 -13 -23 11 -27 -317 59 -116 30 -211 53
-212 52 -4 -4 -30 -279 -54 -567 -12 -135 -25 -285 -30 -335 -14 -132 -12
-242 6 -336 32 -171 91 -268 257 -421 86 -81 111 -110 145 -175 52 -100 72
-180 72 -285 0 -161 -58 -298 -174 -413 -186 -185 -447 -227 -686 -113 -217
104 -344 326 -327 573 11 164 75 289 207 404 239 209 309 396 275 744 -8 84
-22 238 -30 342 -8 105 -20 233 -25 285 -5 52 -12 138 -16 190 -4 52 -8 98
-10 102 -2 3 -118 -23 -258 -59 l-253 -65 -51 54 c-87 92 -216 136 -317 109z
m600 -1190 c43 -24 78 -95 70 -146 -13 -85 -71 -135 -158 -135 -54 0 -105 31
-129 80 -71 140 79 278 217 201z m1105 0 c44 -31 70 -80 70 -130 0 -153 -189
-207 -282 -80 -27 36 -26 118 0 161 46 73 145 96 212 49z"/>
<path d="M5357 6435 c-97 -34 -142 -136 -102 -232 17 -40 35 -62 207 -246 66
-70 124 -125 129 -121 28 17 313 342 325 370 43 103 -14 209 -126 233 -75 16
-386 13 -433 -4z"/>
<path d="M5530 3835 l0 -515 95 0 95 0 0 184 c0 101 3 198 6 216 4 18 24 50
44 71 34 36 41 39 91 39 63 0 100 -25 118 -79 7 -20 11 -114 11 -232 l0 -199
95 0 95 0 0 241 c0 280 -4 303 -70 370 -52 54 -93 69 -190 69 -72 0 -127 -21
-172 -63 l-28 -26 0 219 0 220 -95 0 -95 0 0 -515z"/>
<path d="M2304 4280 l-40 -5 123 -410 c67 -225 132 -440 143 -477 l21 -68 82
0 82 0 105 310 c57 170 107 306 111 302 3 -4 52 -143 109 -309 l102 -303 88 0
87 0 33 113 c53 186 138 472 191 647 28 91 53 173 56 183 4 16 -4 17 -113 15
l-117 -3 -23 -100 c-89 -376 -117 -491 -123 -498 -4 -4 -53 129 -108 295
l-100 303 -79 3 -79 3 -100 -306 c-55 -168 -102 -305 -105 -305 -5 0 -113 440
-135 550 l-11 55 -80 5 c-43 3 -97 3 -120 0z"/>
<path d="M6360 3800 l0 -480 198 0 c217 0 301 12 389 56 152 74 253 242 253
420 0 202 -89 357 -245 429 -103 48 -153 55 -385 55 l-210 0 0 -480z m489 260
c108 -58 148 -139 139 -289 -4 -60 -11 -88 -34 -131 -54 -99 -142 -140 -300
-140 l-93 0 -3 268 c-2 147 -1 282 1 301 l3 33 112 -4 c103 -4 116 -7 175 -38z"/>
<path d="M4400 4090 l0 -100 -60 0 -61 0 3 -77 3 -78 57 -3 58 -3 0 -205 c-1
-182 1 -209 18 -237 40 -70 138 -100 237 -75 l50 13 3 71 3 72 -51 -1 c-27 0
-56 5 -63 12 -8 8 -13 63 -15 181 l-3 169 73 3 73 3 0 75 0 75 -72 3 -73 3 0
99 0 100 -90 0 -90 0 0 -100z"/>
<path d="M8341 3999 c-141 -28 -230 -129 -253 -288 -19 -138 25 -272 112 -336
111 -82 289 -89 374 -15 18 17 36 30 38 30 12 0 -15 -127 -34 -161 -63 -113
-249 -104 -313 15 -11 20 -25 36 -31 36 -14 0 -144 -58 -144 -65 0 -17 36
-105 53 -129 26 -36 124 -82 203 -95 123 -19 265 17 345 87 20 17 49 60 65 94
l29 63 3 378 3 378 -88 -3 -87 -3 -2 -30 c-2 -41 -1 -41 -27 -17 -53 50 -164
78 -246 61z m158 -169 c106 -30 154 -183 90 -286 -55 -90 -231 -85 -287 8 -44
73 -36 170 19 233 44 49 108 66 178 45z"/>
<path d="M3785 3986 c-58 -18 -96 -40 -133 -76 l-32 -33 57 -52 58 -53 28 34
c48 57 170 79 239 43 18 -10 48 -59 48 -79 0 -6 -29 -10 -74 -10 -84 0 -204
-20 -262 -45 -156 -65 -176 -279 -34 -367 106 -65 263 -57 343 19 l27 27 0
-37 0 -37 85 0 85 0 0 238 c0 274 -7 309 -69 365 -59 53 -135 77 -239 76 -48
0 -105 -6 -127 -13z m259 -365 c5 0 6 -22 3 -47 -8 -77 -69 -124 -160 -124
-76 0 -109 26 -105 83 3 34 8 44 36 60 42 25 159 39 226 28z"/>
<path d="M5019 3977 c-74 -31 -122 -69 -157 -125 -42 -67 -55 -115 -55 -208 0
-135 57 -231 175 -295 61 -33 66 -34 178 -34 99 0 121 3 155 22 55 29 135 118
135 149 0 9 -61 35 -140 60 -10 3 -21 -5 -29 -20 -30 -56 -127 -72 -196 -33
-61 34 -87 87 -83 169 4 75 21 107 78 146 61 41 165 27 206 -27 11 -14 18 -13
66 2 30 9 62 17 71 17 23 0 21 18 -4 60 -60 101 -133 140 -259 140 -66 0 -98
-6 -141 -23z"/>
<path d="M7513 3982 c-148 -60 -231 -195 -221 -356 9 -132 94 -251 212 -295
69 -26 178 -28 254 -6 184 55 283 297 198 481 -31 66 -96 130 -164 162 -74 35
-213 42 -279 14z m200 -163 c62 -32 97 -92 97 -166 0 -86 -50 -151 -132 -174
-107 -28 -218 62 -218 179 0 13 10 46 22 73 29 70 74 99 151 99 32 0 68 -5 80
-11z"/>
<path d="M4103 2900 c-40 -24 -53 -48 -53 -98 0 -53 22 -77 95 -105 62 -24 78
-45 55 -72 -16 -20 -55 -19 -86 1 -24 16 -26 16 -54 -11 -17 -16 -30 -33 -30
-37 0 -15 83 -48 119 -48 58 0 117 35 135 80 18 45 12 91 -13 114 -9 9 -37 22
-61 31 -44 16 -80 41 -80 56 0 5 11 16 25 25 22 15 27 15 57 0 32 -16 33 -16
62 13 l29 29 -34 21 c-45 27 -122 28 -166 1z"/>
<path d="M4508 2915 c-3 -4 25 -51 63 -106 l69 -100 0 -85 0 -84 40 0 40 0 0
80 0 81 63 92 c34 50 66 97 70 104 6 10 -4 13 -42 13 l-50 0 -37 -62 c-20 -35
-37 -64 -39 -66 -1 -2 -19 26 -39 62 -34 61 -40 66 -71 66 -18 0 -40 2 -47 5
-8 3 -17 3 -20 0z"/>
<path d="M5133 2900 c-40 -24 -53 -48 -53 -98 0 -52 22 -77 95 -106 34 -14 61
-31 63 -41 9 -41 -52 -60 -97 -29 -21 15 -24 15 -52 -12 -16 -15 -29 -31 -29
-35 0 -4 20 -16 45 -28 103 -48 202 -8 219 90 11 59 -22 94 -121 129 -61 23
-49 70 18 70 22 0 39 -4 39 -10 0 -18 21 -10 45 18 13 15 25 30 25 33 0 4 -15
14 -34 23 -47 22 -123 21 -163 -4z"/>
<path d="M5588 2912 c-25 -3 -28 -8 -28 -38 l0 -34 50 0 50 0 0 -150 0 -150
40 0 40 0 0 150 0 150 51 0 50 0 -3 38 -3 37 -110 0 c-60 0 -122 -1 -137 -3z"/>
<path d="M6097 2913 c-4 -3 -7 -89 -7 -190 l0 -183 130 0 130 0 0 40 0 40 -90
0 -90 0 0 35 0 35 80 0 80 0 0 40 0 40 -75 0 c-58 0 -75 3 -75 14 0 8 -3 21
-6 30 -5 13 2 16 42 16 27 0 66 3 87 6 34 6 37 9 37 39 l0 32 -82 6 c-106 9
-153 9 -161 0z"/>
<path d="M6610 2728 l0 -188 40 0 40 0 1 128 0 127 46 -128 c46 -128 46 -128
76 -125 29 3 32 7 78 138 l48 135 0 -137 1 -138 40 0 40 0 0 189 0 190 -57 -6
c-32 -3 -60 -8 -63 -10 -2 -2 -23 -57 -46 -121 -34 -98 -42 -113 -49 -92 -4
14 -23 69 -42 122 l-35 96 -59 4 -59 3 0 -187z"/>
</g>
</svg>
