<?xml version="1.0" standalone="no"?>
<!DOCTYPE svg PUBLIC "-//W3C//DTD SVG 20010904//EN"
 "http://www.w3.org/TR/2001/REC-SVG-20010904/DTD/svg10.dtd">
<svg version="1.0" xmlns="http://www.w3.org/2000/svg"
 width="512.000000pt" height="512.000000pt" viewBox="0 0 512.000000 512.000000"
 preserveAspectRatio="xMidYMid meet">

<g transform="translate(0.000000,512.000000) scale(0.100000,-0.100000)"
fill="#000000" stroke="none">
<path d="M2480 4069 c-133 -21 -239 -79 -342 -185 -78 -82 -123 -177 -142
-305 -18 -115 7 -169 80 -169 46 0 84 47 84 105 0 131 102 285 229 347 153 74
324 47 455 -73 80 -73 137 -196 136 -292 -2 -148 -101 -300 -239 -369 l-66
-33 -960 -5 c-886 -5 -963 -6 -987 -22 -51 -34 -45 -114 12 -143 27 -14 130
-15 973 -13 1015 4 980 2 1096 55 99 45 209 146 262 239 53 95 70 162 70 287
-1 80 -6 133 -16 165 -68 205 -216 346 -420 400 -52 14 -168 20 -225 11z"/>
<path d="M3750 3584 c-128 -27 -210 -70 -306 -161 -34 -31 -124 -164 -124
-182 0 -6 -4 -19 -9 -29 -17 -31 -31 -110 -31 -176 0 -58 3 -67 26 -85 15 -12
41 -21 59 -21 49 0 71 32 85 125 31 197 155 328 342 360 175 30 360 -68 436
-232 23 -52 26 -70 26 -168 0 -98 -3 -116 -26 -168 -37 -79 -114 -157 -196
-198 l-67 -34 -1595 -5 c-877 -3 -1596 -6 -1597 -8 -1 -1 -11 -12 -23 -24 -29
-32 -27 -88 6 -119 l26 -24 1546 -3 c1130 -2 1563 0 1607 9 152 28 220 64 325
169 101 100 133 159 169 313 33 139 -18 328 -123 456 -89 108 -193 170 -346
206 -79 18 -125 18 -210 -1z"/>
<path d="M716 2160 c-14 -18 -26 -40 -26 -51 0 -28 26 -75 45 -83 9 -3 434 -6
943 -6 982 0 965 0 1073 -47 60 -27 149 -116 178 -178 51 -108 61 -174 40
-263 -34 -147 -143 -269 -279 -313 -52 -16 -208 -18 -242 -2 -13 6 -36 16 -53
24 -130 58 -235 214 -235 348 0 65 -32 101 -89 101 -31 0 -44 -6 -61 -27 -20
-26 -22 -35 -16 -112 11 -141 84 -286 193 -381 73 -63 192 -117 295 -133 49
-8 100 -12 115 -10 183 28 268 68 378 178 79 80 119 146 155 258 15 48 15 245
0 294 -23 75 -83 184 -128 234 -65 73 -134 121 -224 158 -90 37 -70 36 -1064
39 l-972 3 -26 -31z"/>
</g>
</svg>
