<svg version="1.0" xmlns="http://www.w3.org/2000/svg" width="512.000000ptpx" height="512.000000ptpx" viewBox="0 0 512.000000 512.000000" preserveAspectRatio="xMidYMid meet" transform="rotate(0) scale(1, 1)">

<g transform="translate(0.000000,512.000000) scale(0.100000,-0.100000)" fill="#ffffff" stroke="none">
<path d="M2520 4020 c-18 -18 -20 -33 -20 -188 0 -151 2 -171 18 -185 24 -22&#xA;65 -21 85 1 14 16 17 44 17 185 0 154 -2 169 -20 187 -11 11 -29 20 -40 20&#xA;-11 0 -29 -9 -40 -20z"/>
<path d="M1580 3630 c-38 -38 -26 -58 103 -187 68 -68 131 -123 140 -123 23 0&#xA;67 44 67 67 0 9 -55 72 -123 140 -129 129 -149 141 -187 103z"/>
<path d="M3352 3527 c-72 -73 -122 -132 -122 -143 1 -32 27 -57 61 -57 27 0&#xA;49 17 150 120 125 126 136 146 99 183 -38 38 -59 27 -188 -103z"/>
<path d="M2405 3436 c-241 -56 -420 -186 -541 -392 -99 -168 -128 -408 -73&#xA;-604 38 -138 99 -239 225 -371 115 -120 171 -208 189 -299 17 -83 69 -143 144&#xA;-169 44 -14 372 -15 425 0 59 16 121 84 136 150 25 110 76 196 179 304 115&#xA;119 137 148 184 242 226 447 -21 994 -508 1128 -83 22 -284 29 -360 11z m319&#xA;-126 c198 -50 356 -179 449 -365 47 -96 61 -161 62 -290 0 -208 -52 -329 -219&#xA;-504 -119 -125 -165 -196 -202 -312 -42 -130 -39 -129 -253 -129 -217 0 -210&#xA;-4 -255 131 -38 113 -104 218 -182 287 -307 274 -326 717 -44 1003 127 128&#xA;292 196 481 198 55 1 113 -6 163 -19z"/>
<path d="M2533 3240 c-53 -21 -31 -110 27 -110 53 0 78 62 40 100 -22 22 -33&#xA;23 -67 10z"/>
<path d="M2772 3174 c-14 -10 -22 -25 -22 -45 0 -24 9 -35 48 -62 148 -100&#xA;242 -260 242 -412 0 -64 71 -84 106 -30 13 20 14 35 5 98 -14 97 -43 176 -97&#xA;257 -53 81 -102 128 -178 174 -68 41 -73 42 -104 20z"/>
<path d="M1190 2690 c-25 -25 -25 -41 1 -74 l20 -26 163 0 c181 0 206 7 206&#xA;60 0 56 -14 60 -201 60 -156 0 -171 -2 -189 -20z"/>
<path d="M3558 2699 c-12 -6 -18 -22 -18 -44 0 -59 21 -65 207 -65 150 0 165&#xA;2 183 20 11 11 20 29 20 40 0 11 -9 29 -20 40 -18 18 -33 20 -187 20 -96 0&#xA;-176 -5 -185 -11z"/>
<path d="M1682 1867 c-126 -126 -139 -149 -104 -180 39 -35 62 -23 185 100 64&#xA;64 119 125 123 135 9 29 -22 68 -54 68 -22 0 -53 -25 -150 -123z"/>
<path d="M3246 1968 c-9 -12 -16 -30 -16 -40 0 -10 53 -72 118 -138 99 -100&#xA;124 -120 149 -120 33 0 63 26 63 55 0 10 -55 74 -122 142 -131 133 -160 147&#xA;-192 101z"/>
<path d="M2290 1520 c-11 -11 -20 -29 -20 -40 0 -11 9 -29 20 -40 19 -19 33&#xA;-20 270 -20 237 0 251 1 270 20 11 11 20 29 20 40 0 11 -9 29 -20 40 -19 19&#xA;-33 20 -270 20 -237 0 -251 -1 -270 -20z"/>
<path d="M2290 1350 c-11 -11 -20 -29 -20 -40 0 -11 9 -29 20 -40 19 -19 33&#xA;-20 270 -20 237 0 251 1 270 20 11 11 20 29 20 40 0 11 -9 29 -20 40 -19 19&#xA;-33 20 -270 20 -237 0 -251 -1 -270 -20z"/>
<path d="M2427 1182 c-24 -26 -21 -68 5 -86 17 -12 49 -16 134 -16 122 0 144&#xA;10 144 63 0 46 -31 57 -156 57 -95 0 -113 -3 -127 -18z"/>
</g>
</svg>