<svg version="1.0" xmlns="http://www.w3.org/2000/svg" width="512.000000ptpx" height="512.000000ptpx" viewBox="0 0 512.000000 512.000000" preserveAspectRatio="xMidYMid meet" transform="rotate(0) scale(1, 1)">

<g transform="translate(0.000000,512.000000) scale(0.100000,-0.100000)" fill="#ffffff" stroke="none">
<path d="M2660 4134 c-102 -80 -216 -169 -255 -199 -38 -30 -146 -114 -240&#xA;-187 -93 -73 -230 -178 -304 -235 l-133 -103 -514 0 c-496 0 -515 -1 -533 -19&#xA;-11 -11 -23 -35 -26 -53 -3 -18 -5 -386 -3 -816 l3 -784 28 -24 28 -24 512 0&#xA;512 0 203 -157 c112 -87 364 -283 560 -435 265 -206 364 -278 384 -278 15 0&#xA;39 11 55 24 l28 24 0 1685 c0 1641 -1 1686 -19 1706 -14 15 -31 21 -60 20 -37&#xA;0 -58 -14 -226 -145z"/>
<path d="M3330 3821 l0 -109 83 -25 c410 -129 721 -471 813 -898 25 -116 25&#xA;-352 0 -467 -53 -249 -165 -452 -340 -620 -136 -131 -278 -217 -456 -277 l-95&#xA;-33 0 -108 0 -109 30 3 c97 9 368 125 488 208 309 216 522 537 593 897 25 129&#xA;30 341 10 472 -48 310 -180 573 -400 791 -174 172 -354 282 -581 353 -153 48&#xA;-145 52 -145 -78z"/>
<path d="M3337 3413 c-4 -3 -7 -52 -7 -108 l0 -103 83 -26 c311 -97 507 -426&#xA;443 -747 -45 -225 -220 -428 -427 -495 -109 -35 -99 -20 -99 -139 l0 -105 31&#xA;0 c41 0 198 53 268 91 89 47 189 127 248 198 265 319 284 754 47 1087 -62 88&#xA;-178 192 -275 247 -107 60 -292 120 -312 100z"/>
<path d="M3330 2932 l0 -111 45 -32 c165 -118 165 -355 0 -471 l-45 -32 0&#xA;-114 0 -114 24 6 c84 21 196 95 254 169 126 157 147 368 56 556 -52 107 -198&#xA;227 -301 247 l-33 7 0 -111z"/>
</g>
</svg>