<?xml version="1.0" standalone="no"?>
<!DOCTYPE svg PUBLIC "-//W3C//DTD SVG 20010904//EN"
 "http://www.w3.org/TR/2001/REC-SVG-20010904/DTD/svg10.dtd">
<svg version="1.0" xmlns="http://www.w3.org/2000/svg"
 width="512.000000pt" height="512.000000pt" viewBox="0 0 512.000000 512.000000"
 preserveAspectRatio="xMidYMid meet">

<g transform="translate(0.000000,512.000000) scale(0.100000,-0.100000)"
fill="#000000" stroke="none">
<path d="M2434 5110 c-141 -26 -264 -91 -374 -200 -117 -115 -184 -243 -209
-401 -7 -42 -11 -493 -11 -1298 l0 -1234 -76 -76 c-181 -181 -289 -415 -316
-685 -43 -438 198 -881 592 -1084 179 -93 318 -127 520 -127 202 0 341 34 520
127 394 203 635 646 592 1084 -27 270 -135 504 -316 685 l-76 76 0 1234 c0
805 -4 1256 -11 1298 -25 157 -92 286 -208 401 -138 135 -282 198 -471 205
-58 2 -128 0 -156 -5z m257 -246 c115 -34 227 -121 284 -221 35 -62 65 -165
65 -225 l0 -48 -207 0 c-115 0 -225 -5 -245 -10 -69 -20 -104 -97 -73 -163 29
-62 54 -67 304 -67 l221 0 0 -120 0 -120 -234 0 -234 0 -30 -28 c-39 -37 -50
-88 -28 -134 31 -64 47 -68 300 -68 l226 0 0 -120 0 -120 -221 0 c-250 0 -275
-5 -304 -67 -23 -47 -12 -98 27 -135 l30 -28 234 0 234 0 0 -664 0 -665 59
-45 c173 -133 296 -341 331 -559 16 -95 8 -276 -15 -362 -23 -83 -86 -215
-139 -289 -55 -77 -175 -190 -249 -234 -149 -90 -299 -132 -467 -132 -168 0
-318 42 -467 132 -74 44 -194 157 -249 234 -53 74 -116 205 -139 289 -25 91
-31 293 -12 385 45 218 161 407 328 536 l59 45 0 1302 c0 1247 1 1305 19 1367
47 161 163 281 321 331 70 23 199 24 271 3z"/>
<path d="M2485 2999 c-97 -23 -192 -124 -214 -227 -7 -35 -11 -217 -11 -535
l-1 -482 -57 -35 c-31 -19 -93 -71 -137 -115 -135 -135 -199 -290 -199 -485
-1 -129 13 -188 71 -310 39 -80 59 -108 132 -181 72 -72 102 -94 181 -132 209
-102 411 -102 620 0 80 39 109 59 182 133 72 73 93 102 131 181 58 121 72 180
71 309 0 195 -64 350 -199 485 -44 44 -106 96 -137 115 l-57 35 -1 482 c0 318
-4 500 -11 535 -35 164 -198 265 -364 227z"/>
</g>
</svg>
